<svg xmlns="http://www.w3.org/2000/svg" version="1.1" xmlns:xlink="http://www.w3.org/1999/xlink" xmlns:svgjs="http://svgjs.dev/svgjs" width="1000" height="1000" viewBox="0 0 1000 1000"><rect width="1000" height="1000" fill="#ffffff"></rect><g transform="matrix(0.7,0,0,0.7,149.57575757575756,413.45122136394446)"><svg viewBox="0 0 396 98" data-background-color="#0a1627" preserveAspectRatio="xMidYMid meet" height="247" width="1000" xmlns="http://www.w3.org/2000/svg" xmlns:xlink="http://www.w3.org/1999/xlink"><g id="tight-bounds" transform="matrix(1,0,0,1,0.2400000000000091,0.055987890881681324)"><svg viewBox="0 0 395.52 97.88802421823661" height="97.88802421823661" width="395.52"><g><svg viewBox="0 0 577.0880311669304 142.82465405269764" height="97.88802421823661" width="395.52"><g><rect width="6.21325359262675" height="69.24205370138016" x="159.08971581350065" y="36.79130017565874" fill="#000000" opacity="1" stroke-width="0" stroke="transparent" fill-opacity="1" class="rect-o-0" data-fill-palette-color="primary" rx="1%" id="o-0" data-palette-color="#fe0039"></rect></g><g transform="matrix(1,0,0,1,181.5680311669304,36.963544090338786)"><svg viewBox="0 0 395.52 68.89756587202007" height="68.89756587202007" width="395.52"><g><svg viewBox="0 0 395.52 68.89756587202007" height="68.89756587202007" width="395.52"><g><svg viewBox="0 0 395.52 68.89756587202007" height="68.89756587202007" width="395.52"><g transform="matrix(1,0,0,1,0,0)"><svg width="395.52" viewBox="2.450000047683716 -41.04999923706055 239.23001098632812 41.64999771118164" height="68.89756587202007" data-palette-color="#fe0039"><g class="undefined-text-0" data-fill-palette-color="primary" id="text-0"><path d="M13.55 0.6L13.55 0.6Q9.35 0.6 6.93-1.15 4.5-2.9 3.48-6.08 2.45-9.25 2.45-13.4L2.45-13.4 2.45-27Q2.45-31.3 3.55-34.45 4.65-37.6 7.33-39.33 10-41.05 14.6-41.05L14.6-41.05Q19.1-41.05 21.68-39.55 24.25-38.05 25.35-35.4 26.45-32.75 26.45-29.2L26.45-29.2 26.45-26.6 17.7-26.6 17.7-29.9Q17.7-31.2 17.53-32.3 17.35-33.4 16.73-34.08 16.1-34.75 14.7-34.75L14.7-34.75Q13.25-34.75 12.6-33.98 11.95-33.2 11.78-32.05 11.6-30.9 11.6-29.65L11.6-29.65 11.6-10.9Q11.6-9.55 11.88-8.38 12.15-7.2 12.88-6.48 13.6-5.75 14.95-5.75L14.95-5.75Q16.35-5.75 17.1-6.5 17.85-7.25 18.15-8.45 18.45-9.65 18.45-11L18.45-11 18.45-15.75 14.8-15.75 14.8-21 26.5-21 26.5 0 20.6 0 20.1-3.35Q19.3-1.65 17.75-0.53 16.2 0.6 13.55 0.6ZM38.6 0L30.15 0 37.8-40.5 48-40.5 55.55 0 47.3 0 45.95-8.55 40-8.55 38.6 0ZM42.95-29.7L40.8-13.9 45.1-13.9 42.95-29.7ZM65.95 0L59.5 0 60.2-40.5 69.8-40.5 74.25-16.95 79.05-40.5 88.3-40.5 89 0 82.65 0 81.9-26.95 77.2 0 71.55 0 66.55-27.15 65.95 0ZM113.14 0L94.84 0 94.84-40.5 113.04-40.5 113.04-34.4 103.79-34.4 103.79-24.35 110.84-24.35 110.84-18.15 103.79-18.15 103.79-6.05 113.14-6.05 113.14 0Z" fill="#000000" data-fill-palette-color="primary"></path><path d="M126.89 0.6L126.89 0.6Q123.09 0.6 120.54-0.75 117.99-2.1 116.69-4.93 115.39-7.75 115.24-12.25L115.24-12.25 122.89-13.4Q122.94-10.8 123.37-9.2 123.79-7.6 124.57-6.9 125.34-6.2 126.44-6.2L126.44-6.2Q127.84-6.2 128.27-7.15 128.69-8.1 128.69-9.15L128.69-9.15Q128.69-11.65 127.49-13.38 126.29-15.1 124.24-16.85L124.24-16.85 120.74-19.9Q118.44-21.85 116.87-24.33 115.29-26.8 115.29-30.45L115.29-30.45Q115.29-35.6 118.34-38.33 121.39-41.05 126.64-41.05L126.64-41.05Q129.89-41.05 131.87-39.95 133.84-38.85 134.87-37.08 135.89-35.3 136.27-33.33 136.64-31.35 136.69-29.55L136.69-29.55 128.99-28.6Q128.94-30.4 128.77-31.73 128.59-33.05 128.04-33.77 127.49-34.5 126.34-34.5L126.34-34.5Q125.09-34.5 124.52-33.45 123.94-32.4 123.94-31.35L123.94-31.35Q123.94-29.1 125.02-27.68 126.09-26.25 127.84-24.7L127.84-24.7 131.19-21.75Q133.84-19.5 135.67-16.65 137.49-13.8 137.49-9.6L137.49-9.6Q137.49-6.75 136.19-4.42 134.89-2.1 132.52-0.75 130.14 0.6 126.89 0.6ZM154.49 0L145.49 0 145.49-33.85 139.39-33.85 139.39-40.5 160.54-40.5 160.54-33.85 154.49-33.85 154.49 0ZM175.69 0.6L175.69 0.6Q171.14 0.6 168.49-1 165.84-2.6 164.69-5.6 163.54-8.6 163.54-12.75L163.54-12.75 163.54-27.8Q163.54-32 164.69-34.95 165.84-37.9 168.49-39.48 171.14-41.05 175.69-41.05L175.69-41.05Q180.29-41.05 182.96-39.48 185.64-37.9 186.79-34.95 187.94-32 187.94-27.8L187.94-27.8 187.94-12.75Q187.94-8.6 186.79-5.6 185.64-2.6 182.96-1 180.29 0.6 175.69 0.6ZM175.69-5.75L175.69-5.75Q177.09-5.75 177.74-6.45 178.39-7.15 178.59-8.25 178.79-9.35 178.79-10.5L178.79-10.5 178.79-30Q178.79-31.2 178.59-32.27 178.39-33.35 177.74-34.05 177.09-34.75 175.69-34.75L175.69-34.75Q174.39-34.75 173.74-34.05 173.09-33.35 172.89-32.27 172.69-31.2 172.69-30L172.69-30 172.69-10.5Q172.69-9.35 172.86-8.25 173.04-7.15 173.66-6.45 174.29-5.75 175.69-5.75ZM202.33 0L193.38 0 193.38-40.5 204.53-40.5Q208.63-40.5 211.63-39.6 214.63-38.7 216.31-36.38 217.98-34.05 217.98-29.8L217.98-29.8Q217.98-27.3 217.58-25.35 217.18-23.4 216.11-21.98 215.03-20.55 213.03-19.6L213.03-19.6 218.58 0 209.33 0 204.88-18.15 202.33-18.15 202.33 0ZM202.33-34.5L202.33-23.3 204.83-23.3Q206.73-23.3 207.78-23.98 208.83-24.65 209.26-25.93 209.68-27.2 209.68-29L209.68-29Q209.68-31.6 208.73-33.05 207.78-34.5 205.23-34.5L205.23-34.5 202.33-34.5ZM241.68 0L223.38 0 223.38-40.5 241.58-40.5 241.58-34.4 232.33-34.4 232.33-24.35 239.38-24.35 239.38-18.15 232.33-18.15 232.33-6.05 241.68-6.05 241.68 0Z" fill="#000000" data-fill-palette-color="secondary"></path></g></svg></g></svg></g></svg></g></svg></g><g><svg viewBox="0 0 142.82465405269764 142.82465405269764" height="142.82465405269764" width="142.82465405269764"><g><svg xmlns="http://www.w3.org/2000/svg" xmlns:xlink="http://www.w3.org/1999/xlink" version="1.1" baseProfile="tiny" x="0" y="0" viewBox="0 0 100 100" xml:space="preserve" height="142.82465405269764" width="142.82465405269764" class="icon-icon-0" data-fill-palette-color="accent" id="icon-0"><path d="M100 52.993v-6.004H53.466v-3.947h45.905c0 0-3.666-37.641-41.991-42.47v34.642h31.661c0 0-5.333-14.49-13.331-17.821v11.992H63.546V8.566c0 0 22.161 3.165 29.327 29.313l-39.407-0.232V0h-6.005v37.611L8.058 37.379c0 0 5.331-23.317 29.826-29.812l-0.333 21.818H25.554V17.061c0 0-9.998 4.996-13.997 18.154H43.05V0.739c0 0-37.326 5.496-42.491 42.303h46.902v3.947H0v6.004h47.461v4.537H0.642c5.166 36.806 42.492 42.302 42.492 42.302V65.357H11.64c3.999 13.158 13.997 18.154 13.997 18.154V71.187h11.998l0.333 21.818C13.473 86.51 8.141 63.192 8.141 63.192l39.32-0.231v36.988h6.005V62.925l39.49-0.231c-7.165 26.147-29.327 29.313-29.327 29.313V71.187h12.165v11.991c7.998-3.33 13.33-17.819 13.33-17.819H57.463V100c38.326-4.829 41.992-42.47 41.992-42.47H53.466v-4.537H100z" fill="#000000" data-fill-palette-color="accent"></path></svg></g></svg></g></svg></g><defs></defs></svg><rect width="395.52" height="97.88802421823661" fill="none" stroke="none" visibility="hidden"></rect></g></svg></g></svg>